<svg fill="#000" class="cross-icon" viewBox="0 0 32 32"><path fill-rule="evenodd" d="M2.293 2.293a1 1 0 011.414 0L16 14.586 28.293 2.293a1 1 0 111.414 1.414L17.414 16l12.293 12.293a1 1 0 01-1.414 1.414L16 17.414 3.707 29.707a1 1 0 01-1.414-1.414L14.586 16 2.293 3.707a1 1 0 010-1.414z" clip-rule="evenodd"></path></svg><path fill-rule="evenodd" d="M2.293 2.293a1 1 0 011.414 0L16 14.586 28.293 2.293a1 1 0 111.414 1.414L17.414 16l12.293 12.293a1 1 0 01-1.414 1.414L16 17.414 3.707 29.707a1 1 0 01-1.414-1.414L14.586 16 2.293 3.707a1 1 0 010-1.414z" clip-rule="evenodd"></path></svg>