<svg width="73" height="72" fill="none" xmlns="http://www.w3.org/2000/svg"><g clip-path="url(#clip0_80_2074)"><path d="M64.746 14.8l5.18 1.755a3.837 3.837 0 012.418 4.894L55.789 69.044a3.907 3.907 0 01-4.95 2.371L16.413 59.752c.363-1.558.624-2.476.995-3.784l.246-.87c3.889-.517 6.578-1.897 8.654-4.268 1.594-1.82 3.187-4.742 3.168-7.943 0-2.845-1.36-4.742-2.641-6.273-.298-.363-.746-.794-1.236-1.265-1.186-1.142-2.62-2.52-2.771-3.752-.252-2.115 1.517-3.49 3.262-3.652 2.495-.218 4.581 1.31 5.914 2.404.644-1.095 1.346-2.133 2.049-3.172.708-1.046 1.417-2.094 2.067-3.2-1.556-1.286-3.571-2.106-5.69-2.822.063-.278.13-.549.197-.819.162-.653.322-1.302.433-2.026-1.108-.237-2.182-.51-3.257-.782a85.628 85.628 0 00-3.282-.788c-.137.712-.316 1.38-.494 2.049-.211.79-.422 1.58-.564 2.442-3.082.867-5.031 1.958-6.861 3.973-1.641 1.817-3.291 4.643-3.268 7.635 0 2.414 1.19 4.552 2.428 6.06.507.62 1.085 1.159 1.65 1.687.96.895 1.883 1.756 2.357 2.913.897 2.186-.981 4.415-2.74 4.704-3.044.494-5.444-1.244-7.237-2.542-.238-.173-.466-.337-.683-.488-.543.968-1.16 1.863-1.778 2.758-.796 1.152-1.591 2.305-2.229 3.615.996 1.21 2.57 1.845 4.142 2.48.524.21 1.047.422 1.549.655-.244 1-.483 1.932-.627 2.49l-.109.427-7.42-2.514A3.841 3.841 0 01.212 50.19L16.768 2.58A3.912 3.912 0 0121.723.21l34.515 11.704c-.78 2.934-1.192 4.897-1.624 6.945a150.734 150.734 0 01-1.4 6.16c-.768-2.66-3.153-4.087-6.638-3.765-6.264.588-10.784 7.208-12.98 13.695-2.626 7.744-4.148 22.003 5.805 22.581 3.874.223 6.165-1.854 7.91-3.552.216-.287.51-.506.849-.63-.13.688-.189 1.447-.248 2.206-.046.6-.093 1.202-.175 1.768 2.279.019 4.439.126 6.609.233l1.623.08c3.273-16.796 5.211-26.353 8.777-42.836z" fill="#146FF5"/><path d="M48.572 46.135c.602-1.474 2.546-10.963 2.637-12.02.26-3.007-.693-4.847-2.746-4.705a3.89 3.89 0 00-1.58.418c-1.986 1.104-3.138 3.784-4.12 6.795-1 3.092-1.807 6.027-1.475 9.512.185 1.94.85 3.187 2.22 3.661 2.28.81 4.32-1.845 5.064-3.66z" fill="#146FF5"/><path fill-rule="evenodd" clip-rule="evenodd" d="M16.413 59.752c.363-1.558.623-2.476.995-3.785l.246-.87c3.889-.516 6.577-1.896 8.654-4.267 1.593-1.821 3.187-4.742 3.168-7.943 0-2.845-1.361-4.742-2.641-6.274-.298-.363-.746-.794-1.236-1.265-1.187-1.141-2.62-2.52-2.771-3.752-.252-2.115 1.517-3.49 3.262-3.651 2.494-.218 4.58 1.309 5.913 2.404.645-1.096 1.347-2.134 2.05-3.172.708-1.047 1.416-2.094 2.066-3.201-1.555-1.285-3.57-2.106-5.69-2.822.064-.277.13-.548.198-.818.162-.653.322-1.302.433-2.027-1.109-.236-2.183-.509-3.257-.782a85.673 85.673 0 00-3.283-.787c-.136.712-.315 1.38-.493 2.048-.212.791-.423 1.581-.564 2.442-3.082.868-5.031 1.959-6.862 3.974-1.64 1.816-3.29 4.642-3.267 7.635 0 2.413 1.19 4.552 2.428 6.06.507.619 1.085 1.159 1.65 1.686.96.895 1.883 1.756 2.357 2.914.896 2.186-.982 4.414-2.74 4.704-3.044.494-5.444-1.244-7.237-2.543a44.072 44.072 0 00-.683-.487c-.543.968-1.16 1.863-1.779 2.758-.795 1.152-1.59 2.305-2.228 3.615.996 1.209 2.57 1.845 4.142 2.48.524.21 1.047.422 1.548.654-.244 1-.483 1.932-.626 2.491l-.109.428 6.356 2.153zm39.824-47.838c-.778 2.934-1.192 4.897-1.623 6.944-.371 1.765-.756 3.593-1.4 6.16-.768-2.66-3.153-4.087-6.638-3.764-6.265.588-10.784 7.207-12.98 13.695-2.626 7.743-4.148 22.002 5.805 22.58 3.874.224 6.165-1.853 7.91-3.55.216-.289.51-.508.848-.632-.13.688-.188 1.448-.247 2.207a27.33 27.33 0 01-.175 1.767c2.279.02 4.439.126 6.609.234l1.623.08c3.273-16.797 5.211-26.353 8.777-42.836l-8.509-2.885zm-7.665 34.22c.602-1.474 2.546-10.963 2.636-12.02.261-3.007-.692-4.846-2.745-4.704a3.889 3.889 0 00-1.58.417c-1.986 1.105-3.138 3.784-4.12 6.795-1 3.092-1.807 6.028-1.475 9.513.185 1.94.85 3.186 2.22 3.66 2.28.811 4.32-1.844 5.064-3.66z" fill="#fff"/></g><defs><clipPath id="clip0_80_2074"><path fill="#fff" d="M0 0h73v72H0z"/></clipPath></defs></svg>